<?xml version="1.0" encoding="utf-8"?>
<!-- Generator: Adobe Illustrator 18.1.1, SVG Export Plug-In . SVG Version: 6.00 Build 0)  -->
<svg version="1.1" id="Layer_1" xmlns="http://www.w3.org/2000/svg" xmlns:xlink="http://www.w3.org/1999/xlink" x="0px" y="0px"
	 viewBox="0 0 556.9 503.6" enable-background="new 0 0 556.9 503.6" xml:space="preserve">
<g>
	<path d="M314.7,150.1c-0.4,0.2-0.9,0.3-1.3,0.5c-4.2,2.3-8.3,4.6-12.1,7.5c-2.9,2.2-5.9,4.4-8.7,6.7c-2,1.6-3.7,3.4-5.6,5.2
		c-2,1.9-4,3.7-5.9,5.7c-1.4,1.4-2.8,2.8-3.9,4.6c-0.5,0.9-1.5,1.5-2.2,2.3c-0.4,0.4-0.9,0.7-1.3,1.1c-2,1.9-5.3,1.1-6.3-1.5
		c-0.5-1.3,0-2.2,0.6-3.2c1-1.8,2-3.5,2.8-5.4c1.7-4,3.3-8.1,4.8-12.2c0.5-1.2,0.8-2.4,1.2-3.6c0.4-1.1,0.8-2.1,1.2-3.2
		c0.9-2.5,1.7-5,2.6-7.5c0.4-1.2,0.9-2.4,1.3-3.6c0.9-2.6,1.8-5.2,2.7-7.7c0.7-2.1,3.1-3.2,4.9-2.5c1.3,0.5,2.2,2,1.8,3.3
		c-0.1,0.4-0.3,0.8-0.5,1.2c-1.1,2-2.3,3.9-3.4,5.9c-0.5,0.8-0.8,1.7-1.1,2.6c-1.4,3.5-2.9,6.9-4.3,10.4c-1.3,3.4-2.5,6.9-3.7,10.4
		c-0.6,1.7-1.1,3.5-1.7,5.3c0.1,0,0.4,0.1,0.4,0c1.7-1.5,3.3-2.9,4.9-4.4c2.7-2.4,5.3-4.9,8.1-7.2c2-1.7,4-3.4,6.1-4.9
		c3.9-2.7,7.7-5.5,11.8-7.9c3.3-2,6.7-4,10.7-4.9c1.8-0.4,5,1.2,5.4,3c0.1,0.7-0.1,1.6-0.5,2.1c-1.3,1.8-2.4,3.8-4.1,5.2
		c-0.6,0.4-0.8,1.3-1.3,1.8c-4.3,4.6-7.9,9.7-11.5,14.8c-2.1,3-4.3,5.9-6.4,8.9c-1,1.5-2,3.1-3.1,4.8c0.6,0,1,0.1,1.4,0.1
		c0.3,0,0.6-0.2,0.9-0.4c3-1.9,6.4-2.3,9.7-3.2c0.3-0.1,0.6-0.1,0.9-0.2c1.8-0.2,3.6-0.4,5.5-0.6c3.2-0.3,6.4,0.2,9.6,0.3
		c4.3,0.2,8.1,1.7,11.8,3.4c4.1,1.9,7.6,4.6,10.5,8.2c2.1,2.6,3.4,5.4,4.6,8.4c0.7,1.6,0.7,1.6,2.4,1.3c1.7-0.3,3.5-0.5,5.2-0.8
		c3.7-0.5,7.4-1.1,11.1-1.6c3.5-0.4,7.1-0.8,10.6-1.2c3.6-0.4,7.3-0.9,10.9-1.2c3.4-0.3,6.8-0.4,10.2-0.7c1.8-0.1,3.5-0.3,5.3-0.4
		c2.2-0.1,4.4-0.1,6.6-0.2c2.7-0.1,5.3-0.2,8-0.3c0.7,0,1.5-0.3,1.9,1c-1.7,0.3-3.4,0.7-5.1,0.9c-2.2,0.3-4.4,0.3-6.6,0.5
		c-2.5,0.2-5,0.3-7.5,0.6c-1.6,0.2-3.2,0.6-4.9,0.9c-0.4,0.1-0.9,0.2-1.3,0.2c-2.7,0.2-5.3,0.3-8,0.6c-3,0.3-5.9,0.9-8.8,1.3
		c-1.6,0.2-3.3,0.4-4.9,0.6c-1.1,0.1-2.1,0.3-3.2,0.5c-3.9,0.6-7.7,1.4-11.6,1.9c-2.2,0.3-4.4,0.5-6.6,1c-0.8,0.2-1.6,0.4-2.3,0.6
		c-0.1,0.7-0.2,1.2-0.2,1.7c0.1,4.5-1.1,8.6-3.2,12.6c-0.2,0.3-0.4,0.7-0.5,1c-1.2,4.2-3.8,7.5-6.4,10.9c-2.5,3.1-5.5,5.8-8.8,7.9
		c-2.2,1.4-4.6,2.8-7.3,2.8c-1.4,0-2.9-0.2-4.3-0.4c-0.5-0.1-1-0.5-1.4-0.9c-0.5-0.4-0.6-0.9-0.3-1.5c0.3-0.6,0.8-0.8,1.4-0.7
		c0.6,0.1,1.2,0.1,1.7,0.3c1,0.3,1.9,0.1,2.8-0.3c3.8-1.6,7-3.9,9.8-7c2.2-2.4,4.1-5,5.9-7.7c0.6-0.8,1.1-1.7,1.6-2.6
		c1.8-3.4,3.5-6.8,4.1-10.6c0.2-1.4,0.2-2.8,0.3-4.3c-0.9-0.1-1.5-0.3-2.1-0.2c-2.8,0.6-5.7,1.2-8.5,1.8c-2.7,0.6-5.3,1.1-8,1.7
		c-1.3,0.3-2.6,0.6-3.8,1.1c-0.5,0.2-1,0.8-1.2,1.4c-0.5,1.3-0.8,2.7-1.3,4c-1.2,3-2.3,6-3.2,9.2c-0.2,0.8-0.5,1.6-0.9,2.3
		c-1.1,2.1-1.8,4.3-1.6,6.8c0.1,1.3-0.9,2.1-1.5,3c-1.7,2.4-3.5,4.8-5.4,7.1c-1.3,1.6-2.5,3.3-3.9,4.9c-1.6,1.7-3.3,3.4-5.2,4.7
		c-1.4,0.9-3.3,1.2-5,1.5c-0.8,0.2-1.7-0.1-2.1-1.2c1.4-1,2.9-2,4.3-3.1c1.2-1,3-1.6,3.7-3.8c-0.7,0.2-1.1,0.3-1.3,0.5
		c-2.9,1.8-6.3,2.7-9.4,4c-2.7,1.1-5.6,1.7-8.5,1.6c-3.6-0.1-7.2-0.4-10.5-2.1c-3.3-1.7-5.9-4-7.9-6.9c-1.6-2.3-1.9-5.1-1.4-7.8
		c0.3-1.9,0.9-3.8,1.3-5.8c0.1-0.4,0-0.8,0-1.5c-1.5,0.6-2.7,1.3-4.1,1.8c-1.8,0.6-3,1.8-4.2,3.1c-0.9,1-1.5,2.2-2.4,3.1
		c-1.9,2.2-3.9,4.3-5.9,6.4c-2.7,2.7-5.3,5.7-8.3,8c-2.9,2.2-6,4.4-9.9,4.7c-2.4,0.2-4.8,0-6.7-1.9c-1.6-1.6-2-3.3-1.5-5.4
		c1.5-5.5,3.1-10.9,4.7-16.3c1.2-3.9,2.6-7.7,3.7-11.6c0.6-2,0.8-4.1,1.2-6.2c0-0.2,0-0.4,0.1-0.6c1.9-6.6,3.1-13.5,5.1-20.1
		c0.8-2.5,1.2-5.2,1.8-7.8c0.3-1.3,1-2.5,1.4-3.7c0.8-2.1,1.7-4.2,2.4-6.4c0.8-2.5-0.5-4.2-2.1-5c-2.3-1.2-4.7-1.7-7.4-0.9
		c-2.5,0.7-4.8,1.5-6.9,3.1c-1.4,1-2.9,0.5-4.1-0.2c-1.6-1-1.3-3.8,0.6-4.8c1.7-0.9,3.5-1.8,5.4-2.3c1.7-0.5,3.3-1.1,5.1-1.2
		c3.3-0.1,6.5-0.3,9.3,1.7c0.7,0.5,1.4,0.8,2.2,1.1c2.9,1.2,4.6,6.2,3.5,9.1c-0.6,1.7-1.4,3.3-2,4.9c-0.6,1.6-1.1,3.2-1.7,4.8
		c-1.2,3-2.4,6-3.2,9.1c-1.9,7.3-3.9,14.6-5.9,22c-1.5,5.6-2.9,11.3-4.4,17c-0.4,1.5-1,3-1.4,4.6c-0.8,3.1-1.7,6.2-1.9,9.4
		c-0.1,1.7,0.3,2.2,2.1,2.4c1.6,0.1,3-0.5,4.3-1.2c2.3-1.3,4.4-2.7,6.2-4.6c1.1-1.1,2.4-2,3.6-3.1c1.4-1.3,2.7-2.7,4-4.1
		c0.2-0.2,0.2-0.5,0.4-1.1c-0.6,0.2-1.1,0.3-1.5,0.5c-3.8,2-7.4,4.2-10.6,6.9c-1,0.8-2.1,1-3.2,0.4c-1-0.6-2.1-1.2-2.2-2.6
		c-0.1-1.2,0.2-1.9,1.3-2.5c2.4-1.3,4.7-2.8,7.1-4c5.1-2.5,10.2-4.8,15.3-7.1c2.3-1,3.9-2.7,5.4-4.6c2-2.7,4.1-5.3,6.1-8
		c0.9-1.3,1.6-2.7,2.4-4.1c1-1.7,2.1-3.4,3.2-5.1c1.2,0.2,1.5,0.7,1.2,1.6c-0.6,1.5-1,3.1-1.7,4.6c-0.7,1.4-1.5,2.8-2.3,4.1
		c-1.3,2.2-2.6,4.3-4,6.5c2.6-0.1,3.4-0.5,4-2.7c0.4-1.3,1.1-2.5,1.8-3.7c1-1.5,1.7-3.2,2.7-4.8c1.4-2.3,2.9-4.6,4.3-6.9
		c1.9-3.1,3.8-6.3,5.7-9.5c0.3-0.5,0.8-0.9,1.2-1.4c2.5-3.6,4.9-7.3,7.3-10.9c2.4-3.6,4.8-7.1,7.3-10.7c2.2-3.2,4.7-6.3,6.7-9.6
		c2.6-4.2,6-8,8.1-12.6c0.2-0.5,0.7-0.9,1.1-1.4C314.9,150.4,314.8,150.3,314.7,150.1z M318.5,208.1c0-0.6,0-1.2,0-1.8
		c0-1.9,2-4.1,3.6-3.5c1.2,0.4,2.8,0.7,3.4,2.1c0.7,1.4,1.7,1.6,3.2,1.3c5-1,9.9-2,14.9-3c1.4-0.3,2.8-0.7,4.2-1
		c-0.1-0.5-0.1-0.7-0.1-1c-0.9-3.2-2.6-5.8-4.8-8.3c-2.9-3.4-6.6-5.7-10.7-7.1c-4.2-1.5-8.7-1.7-13.1-1.6c-3.7,0.1-7.5,0.5-11.1,1.6
		c-5.9,1.7-11.3,4.1-14.6,9.7c-0.5,0.8-0.8,1.4-0.6,2.3c0.2,1.7,0.9,3.3,1.9,4.7c1,1.4,2.1,2.9,3.1,4.3c0.5,0.8,1,1.7,0.2,2.7
		c-1.3,0.2-2.5-0.2-3.4-1.2c-1.4-1.4-2.8-2.9-4.2-4.4c-1.1-1.1-1.9-2.3-2.4-3.8c-0.1-0.4-0.5-0.6-0.7-1
		c-2.5,2.8-11.8,19.3-12.1,21.4c0.3,0,0.6,0.1,0.9,0c13.5-4.7,27.2-8.6,41.1-11.9C317.4,208.6,317.9,208.3,318.5,208.1z
		 M318.3,212.6c-2.6,0.6-4.7,1.1-6.8,1.6c-4.1,1.1-8.2,2-12.3,3.3c-5.8,1.8-11.5,3.7-17.3,5.7c-2.3,0.8-4.6,1.8-6.9,2.7
		c-0.7,0.3-1.4,0.6-2.1,1c-1.1,0.6-1.8,1.5-2.3,2.7c-1.1,2.7-1.5,5.5-1.4,8.4c0.2,2.5,0.4,4.7,2.2,6.8c2.2,2.5,4.7,3.7,7.9,3.8
		c0.4,0,0.9,0.2,1.3,0.2c1.1,0.2,2.1,0.5,3.2,0.4c5.2-0.5,10.2-1.9,14.9-4.3c2.8-1.4,5.5-3.1,8.2-4.8c0.8-0.5,1.6-1.3,2.1-2.1
		c0.9-1.4,1.7-3,2.5-4.5c1.1-2.1,2.3-4.3,3-6.5c1.3-3.7,2.3-7.5,3.4-11.3C318.2,214.8,318.2,213.9,318.3,212.6z"/>
	<path d="M399.2,367.2c0.9-0.6,1.7-1,2.3-1.6c2-2,4-4,5.8-6.2c1.7-2.1,3.5-4,5.4-5.8c0.8-0.7,1.6-1.4,2.2-2.3c1-1.3,2.3-1.5,3.7-2
		c2.5-0.9,4.4,0,6.4,1.3c1.5,1,2.7,2.2,3.8,3.6c1.4,1.8,3.4,3.2,4.9,5c1.4,1.6,3.2,2.6,4.9,3.9c2.1,1.6,4.6,2.3,7.1,3
		c2.4,0.7,4.9,1.4,7.4,1.7c4.3,0.6,8.7,1.1,13.1,0.7c5.6-0.6,11.2-1,16.7-2.5c3.3-0.9,6.6-1.6,9.9-2.5c2.6-0.8,5.2-1.7,7.7-2.8
		c3.1-1.3,6.2-2.8,9.3-4.2c1.1-0.5,2.1-1.4,2.9-2.4c2.8-3.3,5.7-6.4,8.6-9.6c3.3-3.7,6.5-7.5,9.8-11.2c2-2.3,4.2-4.6,6.2-6.9
		c1.8-2.1,3.9-3.9,6.1-5.6c1.5-1.2,3.4-0.8,4.7,0.6c0.3,0.3,0.6,0.7,0.8,1c1,1.5,1,2.3-0.4,3.4c-2.4,2-3.8,4.9-5.8,7.2
		c-1.9,2.2-3.8,4.6-5.7,6.8c-1.7,2-3.5,4.1-5.3,6c-0.8,0.9-1.8,1.8-2.8,2.5c-2.6,2-5.2,3.8-7.7,5.8c-3,2.2-6.2,4.1-8.8,6.8
		c-1.8,1.8-3.5,3.7-5.2,5.5c-1.9,2-3.7,4.1-5.6,6.1c-2.2,2.5-5,4.4-7.2,6.9c-2.8,3.3-6.1,6-9,9.2c-1,1.1-2.1,2.2-3.2,3.2
		c-3.2,3-6.3,5.9-9.5,8.9c-2.7,2.5-5.2,5.1-7.9,7.6c-2.6,2.4-5.4,4.8-8,7.2c-3.2,2.9-6.4,5.9-9.6,8.8c-3,2.7-5.9,5.4-9,8.1
		c-2.8,2.5-5.6,4.9-8.4,7.3c-1.6,1.5-3.2,3-4.9,4.4c-1.2,1.1-2.5,2.1-3.8,3.2c-0.7,0.6-1.4,1.3-2.1,1.9c-2,1.8-4.1,3.5-6.1,5.3
		c-1.4,1.2-2.8,2.6-4.2,3.8c-3.5,3.1-7.1,6.2-10.7,9.3c-3,2.5-5.8,5.2-9,7.4c-1.5,1-2.8,2.3-4.3,3.4c-1.7,1.3-3.6,1.7-5.7,1.2
		c-2.5-0.6-4-4-2.1-6.8c0.6-0.9,1.5-0.9,2.1,0.1c1.4,2.5,2.2,2.3,4.6,0.8c1.5-0.9,2.8-2.2,4.1-3.3c0,0,0.1-0.1,0.1-0.1
		c2.8-1.5,4.9-3.8,7.2-5.8c3.5-3.1,7-6.2,10.5-9.2c3.3-2.8,6.6-5.6,9.9-8.5c2.8-2.5,5.5-5.1,8.2-7.5c3.3-2.9,6.6-5.7,9.8-8.6
		c1.9-1.6,3.7-3.3,5.5-5c3.2-2.9,6.4-5.7,9.6-8.6c1.9-1.7,3.7-3.6,5.6-5.3c2.9-2.6,5.9-5.2,8.8-7.8c1.7-1.6,3.4-3.2,5.1-4.8
		c1.5-1.4,3-2.7,4.4-4.1c2.1-2,4.3-4.1,6.4-6.2c3-2.9,5.9-5.9,8.9-8.8c2.8-2.8,5.5-5.7,8.3-8.5c1.9-1.9,3.7-3.8,5.6-5.8
		c0.2-0.2,0.3-0.6,0.5-1.1c-0.5,0-0.8-0.1-1.1,0c-1.7,0.7-3.5,1.5-5.2,2.2c-1.3,0.5-2.6,0.9-3.9,1.3c-2,0.5-4,1-6,1.5
		c-1.8,0.4-3.7,0.8-5.6,1.1c-3.4,0.6-6.7,1.2-10.1,1.7c-1.1,0.2-2.3,0.2-3.4,0.2c-3.7,0-7.4,0.1-11,0c-4.9-0.1-9.7-1.2-14.3-3
		c-2.7-1.1-5.2-2.5-7.9-3.8c-0.3-0.2-0.6-0.5-0.9-0.7c-3.6-2.5-6.5-5.8-9.6-8.8c-2.8-2.7-4.6-2.6-7.2,0.3c-3,3.4-6,6.9-8.9,10.3
		c-2.2,2.5-4.6,4.9-7.3,6.8c-1.2,0.8-2.8,1.1-4.3,1.2c-0.7,0.1-1.6-0.5-2.3-1c-1.5-1.1-2-2.9-1.4-4.5c0.7-2,1.2-4.2,2.2-6.1
		c1.1-2.1,1.5-4.5,2.9-6.6c0.7-1,0.9-2.2,1.3-3.4c1.4-3.9,3.3-7.7,3.8-11.9c0.2-1.3,0.9-2.5,0.8-3.9c-0.1-1.6,0.1-3.2,0-4.7
		c-0.2-3-2.2-4.5-5.2-4.4c-4.6,0.1-8.4,2.2-12.2,4.3c-4.4,2.5-8.5,5.5-12.2,9c-2.9,2.7-5.6,5.6-8.5,8.3c-2.9,2.8-5.6,5.9-8.7,8.5
		c-2.6,2.2-5.1,4.7-7.6,7c-1.4,1.3-2.9,2.4-4.4,3.5c-1.6,1.3-3.2,2.7-5,3.7c-2.2,1.3-4.6,1.8-7.1,0.6c-2.3-1.2-2.8-3.4-1.5-5.6
		c0.2-0.3,0.4-0.7,0.5-1c0.8-2.4,2.1-4.4,3.5-6.5c1.1-1.6,2.2-3.3,3.2-5c1.5-2.5,3-5,4.5-7.5c0.7-1.1,1.4-2.3,2.1-3.4
		c1.3-2,2.6-3.9,3.8-5.9c0.7-1.1,1.2-2.2,1.8-3.3c0.8-1.5,1.7-2.9,2.5-4.4c1.5-2.7,3-5.4,4.5-8.1c0.8-1.3,1.7-2.5,2.4-3.8
		c0.7-1.1,1.3-2.3,1.9-3.5c1.3-2.5,2.6-5.1,4-7.6c1.3-2.4,2.7-4.7,4-7.1c1.2-2.2,2.5-4.4,3.6-6.7c0.6-1.1,1-2.4,1.3-3.6
		c0.6-1.9,1.2-3.9,1.6-5.9c0.5-2.7-1-4.2-3.8-3.9c-6,0.7-11,3.5-15.6,7.1c-2.5,2-5.1,3.9-7.2,6.4c-1.3,1.6-2.4,3.2-3.8,4.7
		c-0.7,0.8-1.6,1.5-2.5,2c-1.6,0.9-2.5,0.7-4.1-0.7c2.1-4,4.5-7.7,7.9-10.9c4.5-4.3,9.5-7.7,14.9-10.8c2.6-1.5,5.6-2.4,8.6-2.7
		c1.7-0.2,3.2-0.2,4.9,0.2c2.9,0.8,4.7,2.8,5.6,5.5c0.6,2,0.1,4.2-0.8,6.1c-0.9,2.1-1.9,4.3-3,6.4c-1.3,2.4-2.8,4.6-4.1,7
		c-1.4,2.5-2.7,5-4.1,7.5c-0.8,1.4-1.4,2.9-2.4,4.2c-1,1.2-1.5,2.8-2.2,4.2c-0.9,1.5-1.8,3-2.7,4.5c-0.7,1.3-1.4,2.7-2.1,4
		c-1.5,2.7-3,5.4-4.5,8.1c-0.9,1.7-1.7,3.4-2.7,5c-1.2,2.1-2.6,4.2-3.8,6.3c-0.8,1.4-1.6,2.8-2.3,4.1c-1.6,2.8-3.3,5.6-4.6,8.5
		c-1,2.2-2.3,4.2-3.4,6.3c-0.5,0.9-0.7,1.9-1.1,2.9c1.6,0.3,2.6-0.5,3.6-1.2c5.2-3.6,9.7-8,14.2-12.4c3.1-3,6.2-6,9.3-8.9
		c2.5-2.4,4.9-4.9,7.5-7.2c1.5-1.4,3.2-2.5,4.7-3.8c3-2.5,6.4-4.6,9.9-6.2c2.5-1.1,5.1-2.2,7.9-2.7c3.4-0.7,6.7-0.3,9.6,1.3
		c2.2,1.2,3.5,3.4,3.8,6c0.3,2.5,0,4.9-0.3,7.3c-0.8,5.2-3.2,9.9-4.2,15c-0.3,1.7-1.4,3.2-2,4.9c-0.8,2.4-1.4,4.9-2.1,7.3
		C398.9,366.4,399,366.6,399.2,367.2z"/>
	<path d="M97.5,43.8c-1.4,1.1-2.5,1.9-3.6,2.8c-2.1,1.7-4.2,3.3-6.2,5c-2.1,1.9-4.2,3.8-5.7,6.4c-0.9,1.5-3.3,1.4-4.6,0
		c-1.5-1.6-1.4-3.4,0.4-4.9c2-1.7,4.1-3.4,6.1-5.1c2.5-2.1,5-4.3,7.7-6.2c3.9-2.7,7.6-5.8,12.1-7.5c1-0.4,2-0.9,2.9-1.4
		c0.7-0.4,1.1-0.9,1.4-1.7c1.2-2.8,1.4-5.8,1.5-8.7c0-0.5-0.2-1-0.3-1.5c-0.6-1.8-1.2-3.7-2-5.5c-0.6-1.4-1.8-1.8-3.3-1.3
		c-3,1-3.8,0-3.6-2.7c0-0.4-0.1-0.9-0.2-1.3c-0.4-2.2,1-3.8,3.2-3.6c3.3,0.2,5.7,1.6,7.5,4.5c2.3,3.6,3.4,7.4,3.4,11.6
		c0,2.1-0.6,4-1,5.9c-0.1,0.5-0.3,1.1-0.5,1.9c0.7,0.1,1.3,0.2,1.9,0.4c0.7,0.2,1.4,0.2,2,0.6c1.5,0.8,1.5,2.4,0,3.1
		c-1.3,0.7-2.8,1-4.3,1.5c-3.6,1.2-7.3,2.2-10.4,4.5c-0.3,0.2-0.6,0.5-1.2,1.1c0.9,0.1,1.4,0.2,1.8,0.2c1.8-0.4,3,0.6,3.7,2.1
		c0.3,0.8,0.8,1.1,1.5,1.2c1.4,0.2,2.8,0.5,4.1,0.6c3.2,0.2,5.7,1.6,7.6,4.1c1,1.4,1.1,2.9,0.8,4.5c-0.4,2-1.5,3.8-2.8,5.4
		c-2.3,2.9-4.6,5.8-6.8,8.7c-0.8,1-1.2,2.1-1,3.5c0.3,2.4-0.6,4.7-1.8,6.7c-1.6,2.6-3.3,5.3-5.2,7.7c-2.2,2.9-4.8,5.6-7.1,8.4
		c-1.6,2-3.6,3.6-5,5.7c-1,1.5-2.6,2.7-4,4.1c-2.9,2.9-5.9,5.8-8.6,8.9c-2.3,2.6-4.2,5.4-6.2,8.1c-0.7,0.9-1.7,1.8-1.5,3.2
		c0.9,0.8,2.1,0.9,3.2,0.5c2.2-0.9,4.4-1.7,6.4-2.9c3.3-1.9,6.5-4,9.5-6.3c3.7-2.7,7.3-5.7,10.9-8.5c4.3-3.3,8.6-6.6,12.7-10
		c5-4.1,10-8.2,14.9-12.4c1.6-1.3,3.1-2.6,4.6-3.9c5.5-4.9,10.6-10.2,15.3-15.8c2.4-2.9,4.7-6,6.5-9.3c1.9-3.4,3.8-6.7,5.3-10.3
		c0.2-0.4,0.2-0.8,0.4-1.4c-2.5,1.2-4.2,3-6.1,4.4c-2.1,1.5-4.4,3-6.7,4.3c-0.9,0.5-2.1,0.6-3.1,0.7c-1.1,0.1-3.3-1.5-3.6-2.7
		c-0.3-1.1,0.1-2.2,1-3.1c1.2-1.2,2.2-2.6,3.2-4c2.1-2.9,4.1-5.9,6.3-8.8c2.1-2.8,4.2-5.5,6.4-8.3c2.1-2.6,4.2-5.2,6.4-7.7
		c0.9-1,2.1-1.8,3.3-2.6c0.5-0.3,1.2-0.5,1.8-0.6c2.6-0.3,4,1.3,3.4,3.8c-0.5,2.1-1.2,4.1-1.9,6.2c-0.3,1.1-0.6,2.3-1,3.6
		c1.3-0.2,2-1,2.7-1.6c4.5-3.2,9-6.6,13.5-9.8c2.2-1.6,4.5-3.1,6.8-4.4c1.4-0.8,3-1.3,4.5-1.9c0.9-0.4,1.9-0.6,2.9-0.9
		c1.8-0.6,3.7-0.4,5.5-0.2c2.4,0.3,4.3,1.8,5.8,3.6c1.7,1.9,2.4,4.3,3.1,6.7c0.5,1.8,0.5,3.7,0.6,5.6c0.1,1.8,0.3,3.6,0.3,5.3
		c0,2.1-0.1,4.2-0.2,6.3c-0.2,3.8-0.4,7.6-0.8,11.4c-0.3,3.5-0.9,6.9-1.4,10.4c-0.4,2.8-0.7,5.7-1.2,8.5c-0.4,2.2-1.2,4.3-1.3,6.5
		c-0.2,3.4-1.5,6.5-2,9.9c-0.8,6.2-2.6,12.1-3.7,18.3c-0.5,2.7-1.4,5.4-2,8.1c-1,4.5-1.9,9.1-2.8,13.6c-0.7,3.2-1.4,6.4-2.1,9.6
		c-0.7,3.2-1.6,6.3-2.4,9.4c-0.8,3.4-1.5,6.8-2.2,10.2c-0.8,4-1.7,7.9-2.4,11.9c-0.4,2.6-0.6,5.2-1,7.7c-0.2,1.3-0.4,2.6-0.5,4
		c-0.1,1.3-0.2,2.6-0.1,4c0.1,2.3,0.2,4.6,0.4,6.9c0.6,6.3,3.6,11.4,8.7,15c0.5,0.3,1,0.6,1.3,1c0.2,0.3,0.3,0.9,0.2,1.3
		c-0.1,0.3-0.7,0.5-1.1,0.5c-0.4,0-0.9-0.2-1.3-0.4c-4.3-2.3-7.7-5.5-9.6-10.1c-1.1-2.5-1.8-5.2-2-8c-0.1-1.6-0.3-3.1-0.4-4.7
		c-0.1-3.4,0.5-6.8,0.9-10.2c0.3-2.4,0.9-4.7,1-7.1c0.1-3,1.1-5.9,1.7-8.8c0.5-2.7,0.9-5.4,1.4-8.1c0.2-1,0.5-2,0.7-2.9
		c1.1-4.8,2.1-9.6,3.2-14.4c1-4.6,2-9.2,3-13.8c1.3-6.1,2.7-12.2,4-18.2c0.7-3.4,1.5-6.8,2.2-10.2c0.8-4.1,1.5-8.2,2.2-12.3
		c0.6-3.4,1.2-6.8,1.7-10.1c0.2-1.4,0.3-2.8,0.5-4.2c0.1-0.8,0.3-1.6,0.4-2.4c0.2-1.4,0.4-2.9,0.6-4.3c0.1-0.4,0-0.9,0.1-1.3
		c0.3-2.4,0.7-4.8,1-7.1c0.2-1.3,0.2-2.6,0.2-4c0.1-3.1,0.3-6.2,0.3-9.3c-0.1-4,0-8-1.1-11.9c-0.4-1.5-0.9-2.9-1.7-4.2
		c-1.1-2-3.6-3.4-6-2.8c-2.9,0.7-5.7,1.7-8.3,3.3c-2.6,1.5-5.3,3-7.8,4.7c-2.7,1.9-5.3,4.1-8,6.1c-1.7,1.3-3.4,2.5-5,3.8
		c-2.3,1.9-4.6,3.8-6.6,5.9c-1,1.1-1.7,2.7-2.2,4.2c-1,3.3-2.5,6.3-4.2,9.3c-1,1.7-1.8,3.6-2.8,5.4c-0.1,0.2-0.1,0.4-0.3,0.5
		c-2.5,3.4-4.3,7.3-7.4,10.3c-1.8,1.7-3.2,3.8-4.9,5.5c-3.2,3.2-6.3,6.6-9.8,9.5c-4.4,3.7-8.6,7.6-13,11.3
		c-5,4.2-10.1,8.2-15.2,12.3c-5,4-9.9,8.1-15,12c-4.1,3.2-8.4,6.1-13.1,8.5c-2.6,1.4-5.4,2.1-8.3,2.5c-2,0.3-5.4-1.5-6.4-3.3
		c-1.2-2.1-0.2-3.8,1-5.4c2-2.6,4.1-5.1,6.3-7.6c2.8-3.2,5.7-6.3,8.6-9.4c4.2-4.5,8.5-8.9,12.7-13.4c1.7-1.9,3.5-3.8,4.9-6
		c0.9-1.6,2.2-2.9,3.1-4.5c1-1.8,1.9-3.7,2.6-5.7c0.2-0.5-0.2-1.4-0.5-1.9c-1.7-2.1-1.3-4.6,0.9-6c2.8-1.7,4.9-4.2,6.9-6.7
		c1.2-1.6,2.3-3.3,3.4-5c0.3-0.5,0.5-1,0.5-1.6c0.3-2.2-0.8-3.5-3.1-3.5c-1.4,0-2.9,0.1-4.3,0.1c-2.6-0.1-5.2-0.7-7.5-1.9
		c-1.3-0.7-1.1-2.2-1.5-3.3C97.6,45.3,97.6,44.8,97.5,43.8z M166.7,24.2c-0.6,0.4-1,0.7-1.4,1c-1.7,1.7-3.4,3.4-4.9,5.3
		c-1.8,2.1-3.5,4.3-5.1,6.5c-1.4,1.9-2.7,4-3.9,6c-0.2,0.3-0.2,0.7-0.4,1.5c1.3-0.9,2.2-1.5,3.1-2.2c1.9-1.4,3.8-2.7,5.7-4.1
		c2.2-1.7,4.5-3.4,5.4-6.2c0.4-1.3,1.1-2.6,1.3-4C166.6,26.9,167.5,25.7,166.7,24.2z"/>
	<path d="M36.3,448.9c0.4-0.3,0.8-0.5,1.2-0.8c0.9-0.8,2-1,3.2-0.9c2.6,0.1,5.2,0.1,7.8,0.1c1.3,0,2.5-0.2,3.8-0.2
		c3.4-0.1,6.8-0.3,10.3-0.3c2.3,0,4.6,0.2,6.8,0.3c1.2,0,2.4,0,3.6-0.3c1.6-0.4,3.1-1.2,3.9-2.8c0.8-1.5,2-2.6,3.5-3
		c2.3-0.6,4.6-1.4,7.1-1.1c2.9,0.3,4.5,2,5.9,4.2c0.8,1.4,1.8,2.7,2.6,4.1c0.4,0.7,0.7,1.7,0.7,2.5c0,1.2-1.7,2-3,1.3
		c-1.8-1-3.5-2.2-4.4-4.2c-1-2.1-2.1-2.5-4.2-1.6c-1.6,0.6-3.3,1.1-4.4,2.5c-0.4,0.5-0.8,1-0.9,1.6c-0.3,1.6-1.4,2.2-2.7,2.2
		c-1.3,0.1-2.6,0-3.9-0.3c-1.3-0.3-2.5-0.6-3.9-0.4c-1.3,0.2-2.6-0.1-4-0.2c-2.7-0.1-5.4-0.3-8.1-0.2c-1.4,0-2.9,0.5-4.3,0.8
		c-0.4,0.1-0.7,0.2-1.1,0.2c-3.4,0.2-6.8,0.5-10.2,0.7c-1.5,0.1-2.7-0.3-3.5-1.7c-0.4-0.7-1.1-1.2-1.7-1.8c-0.4,0.3-0.7,0.5-0.9,0.7
		c-1,1.1-2.6,1.3-3.6,0.2c-0.3-0.3-0.5-0.6-0.7-0.9c-1-1.1-1.5-1.1-2.9-0.5c-2.3,0.9-3.8,2.8-5.2,4.6c-1.1,1.5-2.1,3-3.1,4.6
		c-0.5,0.9-0.9,1.7-0.9,2.9c0.1,1.4-1,2.3-2.3,2.1c-1.2-0.2-2.4-0.6-3-1.8c-0.7-1.5-0.9-3,0.3-4.5c1.9-2.3,3.7-4.7,5.5-7
		c1.7-2.2,3.4-4.4,5.9-5.9c1.6-1,3.2-1.4,5.1-1.3c1.4,0.1,2.3,1.1,3.1,2C34.5,446,35.3,447.4,36.3,448.9z"/>
	<path d="M241.3,442.3c-1.3,1.6-2.5,3-3.7,4.5c-1,1.4-2.6,2-3.9,2.9c-1.1,0.7-2.2,0.5-3.3,0.1c-2.9-0.9-5-3.7-4.3-7.1
		c0.6-2.8,2.2-4.8,4.2-6.7c1.3-1.3,2.8-2.5,4.7-2.7c1.2-0.1,2.4,0,3.6,0c1.1-2.4,1.8-4.7,0.9-7.4c-0.8-0.5-1.4-0.1-2.2,0.3
		c-1.9,1.1-2.8,2.9-4.1,4.4c-0.7,0.8-1.4,1.5-2.6,1c-1-0.4-3-3-3-4c0-0.5,0.2-1.2,0.6-1.5c2.4-2.4,5-4.7,8.1-6.2
		c2.3-1.1,5-1.2,7.3,0c1.1,0.6,1.9,1.9,2.1,3.4c0.2,1.9-0.2,3.7-0.7,5.4c-0.4,1.2-0.6,2.5-1,3.7c-0.5,1.8-0.2,3.3,0.8,4.9
		c2,3.3,2.8,7,3.1,10.8c0.1,0.9-0.2,1.8-0.5,2.6c-0.6,2.4-1.3,4.9-2,7.3c-0.3,0.9-0.9,1.8-1.6,2.6c-0.7,0.8-1.6,1.1-2.8,0.8
		c-1.3-0.4-2.4-1.1-2.6-2.5c-0.3-1.9,0.2-3.8,1.8-4.9c2.1-1.4,2.5-3.4,2.7-5.6c0.1-1.6-0.2-3.3-0.4-4.9
		C242.6,442.8,242.5,442.8,241.3,442.3z M232.1,443c0.9,0.6,1.6,0.2,2-0.4c0.9-1.1,2.2-2,2.1-3.6C234.1,439.1,232.5,440.7,232.1,443
		z"/>
	<path d="M47.9,399.8c3.6,1.3,5.2,4.3,6.4,7.5c0.3,0.7,0.3,1.5,0.3,2.2c0,1,0.4,1.9,0.8,2.9c0.5,1.4,0.3,3-0.7,4.4
		c-0.7,1-2.7,0.9-3.5-0.2c-0.7-1-1.2-2.3-1.8-3.6c-0.9,0.2-1.7,0.7-1.9,1.9c-0.1,0.4-0.2,0.7-0.3,1.1c-0.8,2.6-1,2.8-3.7,2.9
		c-1.6,0.1-2.8,0.8-4.1,1.5c-1.9,1-3.9,1.5-6,1.4c-1.8-0.1-3.4-2.4-3.3-4.2c0.1-2.6,1.5-4.6,2.8-6.7c1.2-1.8,2.4-3.7,3.7-5.5
		c0.3-0.4,0.7-0.7,1-1.1c0.2-0.3,0.3-0.7,0.6-1.4c-1.8,0.6-2.9,1.7-3.8,2.8c-0.5,0.6-0.9,1.6-1.9,1.2c-1.1-0.4-2.4-0.3-3-1.7
		c-0.1-0.4-0.4-0.7-0.5-1c-0.6-1.6-0.3-2.5,1.1-3.4c0.6-0.4,1.3-0.6,1.9-0.9c0.6-0.3,1.1-0.5,1.7-0.9c1.3-0.7,2.6-1.5,3.9-2.3
		c1.3-0.8,2.7-1.5,3.8-2.4c0.8-0.6,1.5-0.9,2.4-0.9c1.5,0,2.9-0.1,4.4,0.1c0.8,0.1,1.7,0.3,2.2,0.7c1.3,1.2,1,2.7-0.7,3.7
		c-0.7,0.4-1.3,0.8-2,1.2C47.9,399.5,47.9,399.6,47.9,399.8z M43,410.6c0.4-0.1,0.7,0,0.9-0.2c1.5-1.2,3-2.5,4.4-3.8
		c0.5-0.5,0-1.7-0.7-1.7c-1.4,0-2.9-0.2-3.8,1.1C42.8,407.3,42.4,408.8,43,410.6z M36,415.2c1.3,0.6,1.8,0.6,2.2-0.1
		c0.6-0.9,0.4-1.9-0.5-2.9C37.2,413.2,36.6,414.1,36,415.2z"/>
	<path d="M10.3,487.7c0.8,0.8,1.5,1.8,2.4,2.1c2,0.8,4,1.9,6.3,2.1c2.8,0.2,5.6,0.9,8.5,1.1c2.8,0.2,5.7,0.2,8.6,0.2
		c3.9,0,7.8,0,11.6-0.1c3.2-0.1,6.5-0.5,9.7-0.8c2.5-0.2,4.9-0.4,7.4-0.8c2.9-0.4,5.9-0.8,8.8-1.6c3.2-0.8,6.3-1.8,9.4-2.9
		c2.7-1,5.4-2.2,7.7-4c1.6-1.2,3.5-2.1,5.2-3.2c0.8-0.5,1.6-1.2,2.4-1.8c0.6-0.5,1.1-1.1,1.8-1.4c1.2-0.7,2-0.1,2,1.2
		c-0.1,2-1.1,3.6-2.7,4.8c-2.1,1.6-4.2,3.3-6.6,4.4c-2.3,1.1-4.5,2.4-6.7,3.6c-2.2,1.2-4.6,1.8-6.9,2.4c-4.6,1.2-9.3,1.8-14,2.5
		c-2.9,0.5-5.8,0.2-8.6,0.5c-2.1,0.2-4.2,0.3-6.2,0.4c-2.4,0.1-4.8,0.3-7.2,0.4c-2.3,0.1-4.7,0.2-7,0.2c-1.8,0-3.5-0.1-5.3-0.2
		c-2.3-0.1-4.5-0.2-6.8-0.5c-2.5-0.2-5-0.5-7.5-0.9c-0.9-0.1-1.8-0.5-1.9-1.8c0-0.5-0.7-1.2-1.2-1.5c-0.9-0.5-1.9-0.7-2.8-1.1
		c-1.5-0.5-2.6-1.4-2.8-3.1c-0.2-1.8-0.5-3.5,0.2-5.2c0.6-1.4,2.4-2.3,3.8-1.6c0.4,0.2,0.9,0.9,0.9,1.3c0,1.6,0.1,3.4-1.6,4.5
		C10.7,487,10.6,487.2,10.3,487.7z"/>
	<path d="M166.5,448.7c0.6,0.4,1,0.8,1.5,1.2c0.8,0.6,1.3,1.4,1,2.5c-0.4,1.2-1.1,2.1-2.3,2.3c-2.2,0.3-4.2,0.9-6.2,1.8
		c-1.6,0.8-3.2-0.1-4.4-1.1c-0.7-0.6-1.6-1.1-1.5-2.4c0.1-2.2,1.2-3.8,3.4-3.9c1.9-0.1,3-1.5,3.8-2.8c1.1-1.8,1.9-3.7,1-6
		c-0.5-1.1-0.5-2.4-1-3.5c-0.6-1.4-1.1-1.5-2.4-0.7c-2.1,1.3-4.1,2.6-6.2,4c-0.1,0.1-0.2,0.2-0.3,0.2c-2.7,1.8-4.6,1.3-6.3-1.5
		c-0.4-0.7-0.6-1.4-0.2-2.1c0.2-0.4,0.3-0.8,0.5-1.4c-0.9,0-1.7,0-2.7,0c0.1,0.7,0.2,1.3,0.3,1.8c0.1,1-0.2,1.7-1,2.3
		c-1.5,1.1-3.9,0.8-5.1-0.6c-0.1-0.1-0.1-0.2-0.2-0.3c-2.8-2.4-0.5-5.2,2.1-5.8c0.5-0.1,1.1-0.2,1.7-0.4c0-0.6,0-1,0-1.4
		c0.1-1.3,1-2.4,1.9-2.6c1.4-0.3,3.1,0.3,3.9,1.5c0.8,1.2,0.9,1.6,1,4.2c0.9,0.4,1.7,0.7,2.7,0.2c1.2-0.6,2.4-1.1,3.6-1.6
		c0.9-0.4,1.8-0.9,2.7-1.4c1-0.5,1.6-1.3,1.9-2.5c0.3-1.5,2.7-2.6,4.2-2.4c2.8,0.4,3.5,2.5,4.4,4.6c0.1,0.3,0.1,0.8,0,1.1
		c-1.2,3-0.4,6,0.1,9c0.3,1.8,0.2,3.4-0.5,5C167.6,446.8,167.1,447.7,166.5,448.7z"/>
	<path d="M214.4,438.2c-1.5-0.2-2.4,0.6-3.2,1.5c-1,1.1-2.2,1.5-3.6,0.9c-1.5-0.7-2.7-2.6-2.3-4.3c0.2-1.1-0.2-1.8-1.1-2.1
		c-2.1-0.7-2.5-2.3-2.3-4.2c0.2-1.3,0.4-1.8,1.6-2c1.9-0.3,3.8-0.4,5.7-0.5c0.8-0.1,1.7,0,2.5,0.1c1.2,0.2,2.5,0.4,3.7,0.8
		c0.9,0.3,1.7,0.8,2.7,0.7c0.3-0.1,0.8,0.1,1.1,0.3c1.1,0.5,2.8,3.4,2.4,4.4c-0.9,2.2-0.6,4.5-0.9,6.7c-0.1,0.4-0.2,0.9-0.3,1.3
		c-0.5,1.8-0.9,3.5-1.3,5.3c-0.4,1.9-0.7,3.9-1.2,5.7c-0.7,2.3-2.3,4-4.2,5.2c-1.7,1.1-4.1,0.5-5.4-1.2c-1.2-1.5-1.4-3.2-0.9-5
		c1-3.8,2.6-7.3,5.6-10C213.9,440.9,214.7,439.8,214.4,438.2z"/>
	<path d="M77,415.5c0.2-0.6,0.6-1.6,1-2.6c0.4-1,0.9-1.9,1.4-2.9c0.9-1.9,1.9-3.7,2.9-5.5c0.5-1,1-1.8,0.7-3.2
		c-0.5-1.9,0.5-3.6,2-4.8c1-0.8,2.2-1.3,2.9-2.3c0.4-0.6,1.1-0.8,1.9-0.5c1.2,0.4,2.4,0.7,3.6,1.2c1.4,0.6,2.6,1.3,3.6,2.6
		c1.7,2.1,3.6,4,5.4,6c0.4,0.4,1.1,0.7,1.6,1c1,0.6,1.6,1.9,1.3,2.7c-0.5,1.2-1.8,1.8-3.2,1.3c-0.8-0.4-1.5-1.1-2.2-1.6
		c-0.4-0.3-0.8-0.7-1.3-1.1c-0.7-0.5-1.3-0.4-1.8,0.3c-0.8,1-1.6,2-2.4,2.9c-0.5,0.6-1.2,1.1-1.8,1.7c-1.7,1.6-3.6,1.1-5.5,0.4
		c-1-0.4-1.3-1.5-0.7-2.3c0.5-0.6,1.1-1,1.7-1.4c1-0.7,2-1.3,2.9-2.1c0.3-0.3,0.5-0.7,0.7-1.1c0.3-0.8-0.3-1.4-1.1-1.1
		c-1.6,0.6-3,1.4-3.7,3.1c-0.4,1.1-0.9,2.1-1.6,3c-1.8,2.3-2.4,5-3.3,7.7c-0.4,1.3-1.4,2-2.5,1.8C78.2,418.3,77,417.1,77,415.5z"/>
	<path d="M119.1,397.3c2,1.2,3.7,0.9,5.4,0.3c0.7-0.2,1.4-0.6,2.1-0.9c1.6-0.6,3,0.1,3.9,1.8c0.8,1.5,0.4,2.7-0.9,3.8
		c-1.8,1.6-3.5,3.4-5.1,5.2c-1,1.1-0.4,2.3,1.1,2.3c0.9,0,1.8-0.4,2.7-0.8c1.7-0.8,2.1-0.7,3,1.1c-0.4,0.8-0.8,1.6-1.3,2.3
		c-1,1.7-2.8,2.3-4.6,2.6c-3,0.5-5.1-1.3-7-3.3c-1-1-0.8-3.9,0.1-5.1c0.6-0.7,1.1-1.5,1.7-2.4c-0.9-0.4-1.6-0.7-2.4-1.1
		c-1.7-0.9-2.8-2-3.6-3.9c-1.2-2.8-0.6-5.4,0-8.1c0.3-1.1,1.2-2,1.9-3c0.8-1.3,1.7-2.5,2.5-3.8c0.5-0.8,1-1.6,1.6-2.3
		c1.5-1.7,3.6-1.7,5.1,0c1.1,1.2,0.9,3.6-0.5,4.3c-3.8,1.8-5,5.3-6,9C118.8,396,119.1,396.7,119.1,397.3z"/>
	<path d="M69.9,391.9c0.8-1.1,1.5-2.1,2.3-2.9c0.8-0.8,1.9-0.6,2.7,0.2c0.1,0.1,0.1,0.3,0.2,0.3c2.1,1.5,1.6,3.2,0.8,5.3
		c-1.1,2.8-1.6,5.7-2.4,8.6c-0.2,0.7-0.3,1.5-0.5,2.2c0,0.2-0.2,0.4-0.2,0.5c0.4,2.9-0.7,5.8,0.2,8.6c0.7,2,1,4.1,2.3,5.9
		c0.5,0.8,0.7,1.6-0.1,2.4c-0.8,0.9-1.8,1.1-2.4,0.1c-1.2-2-2.4-4.1-3.2-6.4c-0.6-1.7-0.6-3.6-0.8-5.4c-0.1-1.5-0.1-3-0.1-4.5
		c0-1.4,0-2.7,0-4.2c-0.4,0-0.8-0.1-1.2-0.1c-1.5-0.1-2.6-0.8-3.2-2.2c-0.6-1.5-1.2-2.9-0.5-4.5c0.3-0.7,0.2-1.7,0.2-2.6
		c0-1.3,1-2,1.8-2.7c0.8-0.6,1.6-0.4,2.4,0.3C68.9,391.4,69.5,391.6,69.9,391.9z"/>
	<path d="M146,390.1c3.5-0.2,5.5,1.6,7.3,3.8c1.7,2.1,2.1,4.6,1.7,7c-0.5,3.2-1.4,6.4-3.1,9.3c-1,1.6-1.7,3.2-2.7,4.8
		c-0.3,0.6-0.9,1-1.5,1.4c-0.7,0.4-1.6,0.7-2.3,0c-0.6-0.7-0.5-1.5,0-2.3c0.5-1,0.8-2,1.1-3.1c0.4-1.4,1.1-2.5,1.7-3.8
		c1-2.4,1.7-5.1,2.2-7.7c0.2-0.8-0.5-1.9-0.9-2.8c-0.1-0.3-0.6-0.6-0.9-0.6c-1.2,0-2.5-0.1-3.7,0.3c-1.2,0.3-2.3,1.1-2.8,2.4
		c-0.4,0.9-1,1.7-1.5,2.6c-0.3,0.5-2.2,1.1-2.8,0.7c-0.8-0.4-1.6-0.9-2-1.6c-1.1-1.9-1.1-2.9,0.7-4.2c2-1.4,3.8-3.1,5.7-4.7
		C143.2,390.6,144.6,389.9,146,390.1z"/>
	<path d="M505.1,288.7c-1.8-0.7-3.6-1.3-5.3-2c-2.7-1.2-5.4-2.4-8.1-3.6c-1.2-0.6-2.3-1.2-3.5-1.9c-1.6-0.9-3.2-1.9-4.8-2.9
		c-1.1-0.6-2.2-1.1-3.4-1.7c-2.4-1.2-4.7-2.4-7-3.7c-1.2-0.6-2.3-1.4-2.6-2.8c-0.3-1.3,0-2.1,1.1-2.9c0.1,0,0.1-0.1,0.1-0.1
		c3.2-1.8,3-1.9,5.6,0.7c2.4,2.4,5.1,4.3,7.9,6.2c1.9,1.2,3.6,2.5,5.5,3.7c3,1.9,6.1,3.6,9.1,5.5c0.9,0.6,1.7,1.2,2.6,1.8
		c0.7,0.4,1.4,0.9,2.1,1.2C505.7,286.7,505.7,286.7,505.1,288.7z"/>
	<path d="M124.7,457c-2.2-0.3-4.3-1.1-5.9-3c-1.5-1.8-2.2-3.7-1.6-6c0.4-1.5,2-2.7,3.5-2.7c0.9,0,1.3,0.7,1.5,1.5
		c0.2,0.7,0.2,1.5,0.4,2.3c0.3,1.7,1.4,2.3,3.1,2.1c3.4-0.4,6.2-2.3,9.2-3.8c1.2-0.6,2-1.5,3-2.2c0.7-0.5,1.3-0.8,2.1-0.3
		c0.8,0.5,1,1.2,0.8,2.2c-0.3,1.9-1.5,3.4-3,4.5c-3.4,2.8-7.4,4.3-11.6,5.4C125.8,457,125.4,456.9,124.7,457z"/>
	<path d="M276.8,417.7c-1.3,3-2.5,5.7-3.8,8.4c-2.2,4.5-2.9,9.4-4.3,14.2c-0.2,0.7-0.5,1.4-0.9,2.1c-0.4,0.6-0.8,1.4-1.8,1.1
		c-0.9-0.3-1.6-1.2-1.5-2.2c0-0.7,0.2-1.4,0.3-2.1c0.3-2.1,0.5-4.3,1-6.4c0.8-3.5,1.8-7,2.7-10.5c0.4-1.6,1-3.2,0.5-5
		c-0.3-1.3,1.2-2.9,2.5-3C274.4,413.8,275.5,414.6,276.8,417.7z"/>
	<path d="M64.2,481.2c1.2,1.5,1.4,2,0.3,3.2c-0.7,0.8-1.6,1.4-2.5,1.9c-1.6,1-3.4,1.7-5.4,1.7c-0.5,0-1.1,0.1-1.5-0.2
		c-1.6-0.8-2.9-0.3-4.2,0.6c-0.4,0.3-0.9,0.5-1.4,0.7c-2.6,1.5-4.7,1.1-6.7-1.1c-1.5-1.6-1-3.4-0.9-5.2c0-1,1.9-1.9,3.1-1.6
		c0.8,0.2,1.7,0.5,2.4,1.1c0.8,0.6,1.4,0.7,2.2,0.2c1.3-0.8,2.7-1.2,4.1-1.2c0.9,0,1.8,0,2.6,0.3c1.3,0.5,2.6,0.4,3.9,0.2
		C61.7,481.6,63,481.4,64.2,481.2z"/>
	<path d="M185.3,432.3c0.4,0.3,1.2,0.8,1.8,1.4c1.1,1.1,1,2.8,0.1,4.1c-1,1.4-1.8,2.9-1.9,4.7c-0.1,1.7-0.1,3.4-0.2,5.1
		c-0.1,1.5,0.8,2.3,1.9,3c1.7,1.2,1.4,3.4-0.4,4.3c-0.6,0.3-1.2,0.3-2-0.1c-2.5-1.4-3.8-3.5-4.3-6.3c-0.3-1.8-0.6-3.7-0.5-5.5
		c0.1-1.7,0.7-3.3,1.1-5c0.2-0.9,0.5-1.7,0.7-2.6C182,434,183.8,432.2,185.3,432.3z"/>
	<path d="M126.7,430.6c2.4,0.1,4.1-0.2,5.5,1.1c1.3,1.1,1.4,3.5,0.2,4.5c-0.2,0.2-0.6,0.2-0.9,0.2c-0.6,0-1.3,0-1.9-0.2
		c-2.7-0.8-5.1,0.5-7.5,1.2c-1.6,0.5-3,1.3-4.5,2c-1,0.5-1.9,0.1-2.8-0.2c-1.5-0.6-2.6-2.8-2.4-4.4c0.1-1,1.4-2.3,2.5-2.2
		c2.6,0.1,5-0.9,7.4-1.2C124.1,431.1,125.8,430.7,126.7,430.6z"/>
	<path d="M198.7,438c-0.3,0.8-0.9,2.1-1.4,3.4c-0.3,0.7-0.4,1.4-0.6,2.1c-0.1,0.4,0.1,0.8-0.1,1.1c-0.7,2,0.2,3.4,1.4,4.8
		c0.7,0.8,1.3,1.5,0.9,2.7c-0.5,1.3-2.6,2.1-3.6,1.1c-1.6-1.5-2.9-3.3-3.6-5.6c-0.4-1.6-0.1-3.1,0.2-4.6c0.4-1.6,0.5-3.3,0.7-5
		c0.1-0.8,0.3-1.6,0.5-2.4c0.4-1.6,0.7-1.6,2.4-1.5C197.8,434.2,198.8,435.6,198.7,438z"/>
	<path d="M175.1,428.9c0.2-1.8,0.7-3.4,1.9-4.6c1.1-1.1,3.5-0.9,4.6,0.4c1.2,1.3,1,2.9-0.6,4.1c-0.7,0.5-1.5,0.9-2.3,1.3
		c-1.4,0.7-1.6,1-1.2,2.4c0.5,1.4,0,2.5-0.9,3.5c-0.8,0.9-1.8,1.4-3,0.9c-1.3-0.6-2.7-1.1-2.9-2.9c0-0.2,0-0.4-0.1-0.6
		c-0.5-1-0.5-2,0.3-2.8c0.8-0.9,1.7-1.9,3.2-1.6C174.5,429,174.7,428.9,175.1,428.9z"/>
	<path d="M106.9,395.3c-1.8-0.3-3-1-3.8-2.4c-0.8-1.3-0.7-2.7,0-4c0.3-0.6,1-1,1.6-1.3c1.1-0.5,2.4-0.9,3.5-1.4
		c1.8-0.6,4.1,0.2,4.9,1.9c0.5,1.1,0,3.7-1.9,4.7c-0.8,0.4-1.5,1-2.2,1.4C108.3,394.7,107.5,395,106.9,395.3z"/>
	<path d="M137.2,385c0.7-2.1,1.3-4.4,2.2-6.4c0.8-1.8,2.8-2.1,4.3-1c2,1.4,2.5,3,1.3,4.6c-0.2,0.2-0.4,0.5-0.7,0.6
		c-1.6,0.6-2.4,1.9-3.3,3.3c-0.8,1.1-1.5,1.4-2.4,1.1C137.7,386.8,137.2,386.1,137.2,385z"/>
	<path d="M271,461.9c0,1.9-1.5,3-3.7,2.8c-1.9-0.2-3.8-2.1-4-4c-0.1-1.7,1.1-2.6,2.1-3.4c1-0.7,2.4-0.5,3.5,0.5
		C270.2,458.9,271,460.1,271,461.9z"/>
	<path d="M79.2,461.9c2,0.1,3.5,1.9,3.3,3.9c-0.2,1.9-1.2,2.8-2.9,2.7c-3-0.2-4.1-1.5-4-3.3C75.7,463.7,77.9,461.8,79.2,461.9z"/>
	<path d="M33.7,473c-1.2-1.2-2.3-2.2-2.6-3.8c-0.1-1,0-1.7,0.8-2.4c0.8-0.6,1.5-0.5,2.3-0.2c0.9,0.4,1.8,0.8,2.7,1.2
		c1.4,0.7,1.5,2.5,0.3,3.7C36.2,472.7,34.9,472.7,33.7,473z"/>
	<path fill="#FFFFFF" d="M166.7,24.2c0.8,1.5-0.1,2.7-0.2,3.9c-0.2,1.4-0.9,2.6-1.3,4c-0.9,2.8-3.3,4.4-5.4,6.2
		c-1.8,1.5-3.8,2.8-5.7,4.1c-0.9,0.7-1.8,1.3-3.1,2.2c0.2-0.8,0.2-1.2,0.4-1.5c1.3-2,2.5-4.1,3.9-6c1.6-2.2,3.4-4.4,5.1-6.5
		c1.6-1.8,3.3-3.5,4.9-5.3C165.6,24.9,166.1,24.6,166.7,24.2z"/>
	<path fill="#FFFFFF" d="M232.1,443c0.4-2.3,1.9-3.9,4.1-4c0.1,1.7-1.2,2.6-2.1,3.6C233.7,443.2,233,443.6,232.1,443z"/>
	<path fill="#FFFFFF" d="M43,410.6c-0.7-1.8-0.2-3.3,0.7-4.6c1-1.3,2.5-1.1,3.8-1.1c0.7,0,1.3,1.3,0.7,1.7c-1.4,1.3-2.9,2.5-4.4,3.8
		C43.8,410.5,43.5,410.5,43,410.6z"/>
	<path fill="#FFFFFF" d="M36,415.2c0.6-1.1,1.2-2,1.7-3c0.9,1.1,1.1,2.1,0.5,2.9C37.8,415.8,37.3,415.8,36,415.2z"/>
</g>
</svg>
